{"title":"The Ring in HINDI(Horror)","uid":5159007,"size":1170185944,"categoryP":"video","categoryS":"movies","magnet":"?xt=urn:btih:95949369ca4a85ed13a8f2b7d51fcfa87760b1b9&amp;dn=The+Ring+in+HINDI%28Horror%29&amp;tr=udp%3A%2F%2Ftracker.openbittorrent.com%3A80&amp;tr=udp%3A%2F%2Fopen.demonii.com%3A1337&amp;tr=udp%3A%2F%2Ftracker.coppersurfer.tk%3A6969&amp;tr=udp%3A%2F%2Fexodus.desync.com%3A6969","seeders":0,"leechers":1,"uploader":"pain_here2007","files":2,"time":1258032065,"description":"This is very good horror movie.\n\nGeneral\nFormat                           : CDXA/MPEG-PS\nFile size                        : 535 MiB\nDuration                         : 53mn 0s\nOverall bit rate                 : 1 412 Kbps\n\nVideo\nID                               : 224 (0xE0)\nFormat                           : MPEG Video\nFormat version                   : Version 1\nFormat settings, BVOP            : Yes\nFormat settings, Matrix          : Default\nDuration                         : 53mn 0s\nBit rate mode                    : Constant\nBit rate                         : 1 132 Kbps\nNominal bit rate                 : 1 120 Kbps\nWidth                            : 352 pixels\nHeight                           : 288 pixels\nDisplay aspect ratio             : 4:3\nFrame rate                       : 25.000 fps\nResolution                       : 8 bits\nScan type                        : Progressive\nBits/(Pixel*Frame)               : 0.447\nStream size                      : 429 MiB (80%)\n\nAudio\nID                               : 192 (0xC0)\nFormat                           : MPEG Audio\nFormat version                   : Version 1\nFormat profile                   : Layer 2\nDuration                         : 53mn 0s\nBit rate mode                    : Constant\nBit rate                         : 224 Kbps\nChannel(s)                       : 2 channels\nSampling rate                    : 44.1 KHz\nVideo delay                      : -80ms\nStream size                      : 84.9 MiB (16%)\n\n\n\n\nWrite your comments on quality of this movie.\n\n\nPlease seed guys i will not reseed.\n\n\nTorrent uploaded by ASHISH THE GREAT.\n\nOther uploaded torrents by me\n\n1.http://thepiratebay.se/torrent/4988511/Death_of_Hinduism(Should_read_by_every_HINDU)\n\n2.http://thepiratebay.se/torrent/4888474/The_Incredibles_in_HINDI_(Hum_hain_lajawab)\n\n3.http://thepiratebay.se/torrent/4886918/Transformers_in_HINDI\n\n4.http://thepiratebay.se/torrent/5050749/300_in_Hindi\n\n\nEnjoy bhai bandhuo\n","torrent":{"xt":"urn:btih:95949369ca4a85ed13a8f2b7d51fcfa87760b1b9","amp;dn":"The+Ring+in+HINDI%28Horror%29","amp;tr":["udp%3A%2F%2Ftracker.openbittorrent.com%3A80","udp%3A%2F%2Fopen.demonii.com%3A1337","udp%3A%2F%2Ftracker.coppersurfer.tk%3A6969","udp%3A%2F%2Fexodus.desync.com%3A6969"],"infoHash":"95949369ca4a85ed13a8f2b7d51fcfa87760b1b9","infoHashBuffer":{"type":"Buffer","data":[149,148,147,105,202,74,133,237,19,168,242,183,213,31,207,168,119,96,177,185]},"announce":[],"urlList":[]}}